<svg width="138" height="84" viewBox="0 0 138 84" fill="none" xmlns="http://www.w3.org/2000/svg">
<path d="M16.7016 27.28H7.50156V21.04C10.0082 21.04 12.0082 20.8267 13.5016 20.4C15.0482 19.9733 16.2749 19.28 17.1816 18.32C18.0882 17.3067 18.8882 15.8667 19.5816 14H25.5016V70H16.7016V27.28ZM37.2528 63.92C37.2528 59.92 37.8928 56.5067 39.1728 53.68C40.4528 50.8 42.7461 47.6267 46.0528 44.16C49.3061 40.6933 51.5461 37.7333 52.7728 35.28C54.0528 32.8267 54.6928 30.2667 54.6928 27.6C54.6928 25.2 54.2928 23.5467 53.4928 22.64C52.7461 21.68 51.6261 21.2 50.1328 21.2C47.0928 21.2 45.5728 23.04 45.5728 26.72V32.72H37.2528V27.28C37.2528 22.7467 38.3728 19.28 40.6128 16.88C42.8528 14.4267 46.1061 13.2 50.3728 13.2C54.6395 13.2 57.8928 14.4267 60.1328 16.88C62.3728 19.28 63.4928 22.7467 63.4928 27.28C63.4928 30.6933 62.6661 34.0267 61.0128 37.28C59.4128 40.5333 56.6128 44.2667 52.6128 48.48C49.9995 51.2533 48.2395 53.52 47.3328 55.28C46.4261 56.9867 45.9728 58.8267 45.9728 60.8V62H62.6928V70H37.2528V63.92ZM77.3241 22H68.1241V14H95.3241V22H86.1241V70H77.3241V22ZM100.585 14H109.385V36.8H118.825V14H127.625V70H118.825V44.8H109.385V70H100.585V14Z" fill="#121212"/>
<rect x="3.1369" y="3.5" width="131.726" height="77" stroke="#121212"/>
<rect x="0.5" y="0.5" width="5" height="5" stroke="#121212"/>
<rect x="132.5" y="0.5" width="5" height="5" stroke="#121212"/>
<rect x="0.5" y="78.5" width="5" height="5" stroke="#121212"/>
<rect x="132.5" y="78.5" width="5" height="5" stroke="#121212"/>
<rect x="66.5" y="0.5" width="5" height="5" stroke="#121212"/>
<rect x="66.5" y="78.5" width="5" height="5" stroke="#121212"/>
</svg>
