<svg width="122" height="33" viewBox="0 0 122 33" fill="none" xmlns="http://www.w3.org/2000/svg">
<path id="Subtract" fill-rule="evenodd" clip-rule="evenodd" d="M122 0H0V33H122V0ZM25.5185 11.16V23H29.7425C32.3345 23 34.3185 21.896 34.3185 19.512C34.3185 17.928 33.3745 17.016 32.1105 16.712V16.648C33.1185 16.28 33.7105 15.176 33.7105 14.088C33.7105 11.88 31.8545 11.16 29.4225 11.16H25.5185ZM29.2625 15.976H27.8865V12.984H29.2945C30.7185 12.984 31.4065 13.384 31.4065 14.424C31.4065 15.384 30.7665 15.976 29.2625 15.976ZM29.5345 21.176H27.8865V17.736H29.5345C31.1665 17.736 32.0145 18.232 32.0145 19.384C32.0145 20.6 31.1345 21.176 29.5345 21.176ZM35.7691 20.568C35.7691 22.104 36.8091 23.224 38.4091 23.224C39.4331 23.224 40.3291 22.728 41.1131 22.056H41.1771L41.3531 23H43.2731V17.784C43.2731 15.176 42.1051 13.832 39.8331 13.832C38.4091 13.832 37.1451 14.36 36.0891 15L36.9371 16.568C37.7531 16.072 38.5691 15.72 39.4011 15.72C40.5051 15.72 40.8731 16.376 40.9211 17.256C37.3211 17.656 35.7691 18.664 35.7691 20.568ZM40.9211 20.52C40.3451 21.08 39.8491 21.384 39.1771 21.384C38.4891 21.384 38.0091 21.08 38.0091 20.392C38.0091 19.576 38.7291 18.984 40.9211 18.712V20.52ZM45.1102 18.536C45.1102 21.496 46.9982 23.224 49.4622 23.224C50.4543 23.224 51.5583 22.888 52.4062 22.152L51.4782 20.6C50.9823 21 50.3743 21.32 49.7183 21.32C48.4383 21.32 47.5103 20.216 47.5103 18.536C47.5103 16.84 48.4222 15.752 49.8143 15.752C50.2943 15.752 50.7262 15.944 51.1743 16.328L52.2783 14.824C51.6222 14.248 50.7902 13.832 49.6702 13.832C47.2383 13.832 45.1102 15.56 45.1102 18.536ZM54.1077 10.248V23H56.4118V20.744L57.6758 19.288L59.8517 23H62.3958L59.0518 17.736L62.1237 14.056H59.5317L56.4917 17.896H56.4118V10.248H54.1077ZM61.9399 17.592V19.272H66.3239V17.592H61.9399ZM67.7978 18.536C67.7978 21.496 69.7497 23.224 72.2617 23.224C73.3658 23.224 74.4857 22.856 75.3658 22.248L74.5817 20.792C73.9258 21.192 73.2858 21.416 72.5658 21.416C71.2377 21.416 70.2777 20.664 70.0697 19.192H75.6058C75.6537 18.968 75.7018 18.552 75.7018 18.104C75.7018 15.624 74.4378 13.832 71.9577 13.832C69.8457 13.832 67.7978 15.624 67.7978 18.536ZM73.7018 17.624H70.0378C70.2298 16.312 71.0618 15.64 72.0058 15.64C73.1578 15.64 73.7018 16.408 73.7018 17.624ZM77.6546 14.056V23H80.0066V16.84C80.6626 16.2 81.1266 15.848 81.8626 15.848C82.7266 15.848 83.1266 16.312 83.1266 17.72V23H85.4786V17.416C85.4786 15.176 84.6306 13.832 82.7106 13.832C81.4946 13.832 80.5666 14.472 79.7986 15.24H79.7506L79.5586 14.056H77.6546ZM87.3766 18.536C87.3766 21.48 88.8166 23.224 91.0566 23.224C91.9846 23.224 92.8806 22.728 93.5366 22.072H93.5846L93.7606 23H95.6806V10.248H93.3286V13.384L93.4246 14.792C92.7686 14.2 92.1446 13.832 91.1366 13.832C89.2166 13.832 87.3766 15.608 87.3766 18.536ZM93.3286 20.376C92.8166 21.032 92.2886 21.288 91.6486 21.288C90.4806 21.288 89.7926 20.376 89.7926 18.504C89.7926 16.712 90.6566 15.752 91.6646 15.752C92.2246 15.752 92.8006 15.944 93.3286 16.44V20.376Z" fill="#5D5D5D"/>
</svg>
