<svg width="122" height="33" viewBox="0 0 122 33" fill="none" xmlns="http://www.w3.org/2000/svg">
<path id="Subtract" fill-rule="evenodd" clip-rule="evenodd" d="M122 0H0V33H122V0ZM23.6044 11.16V23H25.9724V18.2H30.1804V16.232H25.9724V13.128H30.9004V11.16H23.6044ZM32.3187 14.056V23H34.6707V17.672C35.1667 16.376 36.0147 15.896 36.7027 15.896C37.0718 15.896 37.3078 15.9551 37.6098 16.0308L37.6467 16.04L38.0467 14.024C37.7747 13.896 37.4867 13.832 37.0067 13.832C36.0787 13.832 35.1027 14.456 34.4627 15.64H34.4147L34.2227 14.056H32.3187ZM38.4774 18.536C38.4774 21.496 40.5254 23.224 42.7814 23.224C45.0214 23.224 47.0694 21.496 47.0694 18.536C47.0694 15.56 45.0214 13.832 42.7814 13.832C40.5254 13.832 38.4774 15.56 38.4774 18.536ZM44.6694 18.536C44.6694 20.216 43.9974 21.32 42.7814 21.32C41.5494 21.32 40.8774 20.216 40.8774 18.536C40.8774 16.84 41.5494 15.752 42.7814 15.752C43.9974 15.752 44.6694 16.84 44.6694 18.536ZM49.0531 14.056V23H51.4051V16.84C52.0611 16.2 52.5251 15.848 53.2611 15.848C54.1251 15.848 54.5251 16.312 54.5251 17.72V23H56.8771V17.416C56.8771 15.176 56.0291 13.832 54.1091 13.832C52.8931 13.832 51.9651 14.472 51.1971 15.24H51.1491L50.9571 14.056H49.0531ZM59.6231 19.88C59.6231 21.88 60.4391 23.224 62.5671 23.224C63.3671 23.224 63.9911 23.048 64.4711 22.888L64.0871 21.176C63.8311 21.272 63.4951 21.384 63.1911 21.384C62.4071 21.384 61.9751 20.904 61.9751 19.88V15.896H64.1991V14.056H61.9751V11.624H60.0231L59.7671 14.056L58.3751 14.152V15.896H59.6231V19.88ZM64.8539 17.592V19.272H69.2379V17.592H64.8539ZM70.7118 18.536C70.7118 21.496 72.6638 23.224 75.1758 23.224C76.2798 23.224 77.3998 22.856 78.2798 22.248L77.4958 20.792C76.8398 21.192 76.1998 21.416 75.4798 21.416C74.1518 21.416 73.1918 20.664 72.9838 19.192H78.5198C78.5678 18.968 78.6158 18.552 78.6158 18.104C78.6158 15.624 77.3518 13.832 74.8718 13.832C72.7598 13.832 70.7118 15.624 70.7118 18.536ZM76.6158 17.624H72.9518C73.1438 16.312 73.9758 15.64 74.9198 15.64C76.0718 15.64 76.6158 16.408 76.6158 17.624ZM80.5687 14.056V23H82.9207V16.84C83.5767 16.2 84.0407 15.848 84.7767 15.848C85.6407 15.848 86.0407 16.312 86.0407 17.72V23H88.3927V17.416C88.3927 15.176 87.5447 13.832 85.6247 13.832C84.4087 13.832 83.4807 14.472 82.7127 15.24H82.6647L82.4727 14.056H80.5687ZM90.2907 18.536C90.2907 21.48 91.7307 23.224 93.9707 23.224C94.8987 23.224 95.7947 22.728 96.4507 22.072H96.4987L96.6747 23H98.5947V10.248H96.2427V13.384L96.3387 14.792C95.6827 14.2 95.0587 13.832 94.0507 13.832C92.1307 13.832 90.2907 15.608 90.2907 18.536ZM96.2427 20.376C95.7307 21.032 95.2027 21.288 94.5627 21.288C93.3947 21.288 92.7067 20.376 92.7067 18.504C92.7067 16.712 93.5707 15.752 94.5787 15.752C95.1387 15.752 95.7147 15.944 96.2427 16.44V20.376Z" fill="#5D5D5D"/>
</svg>
