<svg width="20" height="19" viewBox="0 0 20 19" fill="none" xmlns="http://www.w3.org/2000/svg">
<path fill-rule="evenodd" clip-rule="evenodd" d="M9.88002 0C4.70862 0 0.52002 4.29455 0.52002 9.59675C0.52002 13.8433 3.19932 17.4301 6.91992 18.7017C7.38792 18.7856 7.56342 18.4977 7.56342 18.2458C7.56342 18.0179 7.55172 17.2622 7.55172 16.4584C5.20002 16.9023 4.59162 15.8706 4.40442 15.3308C4.29912 15.0549 3.84282 14.2032 3.44502 13.9753C3.11742 13.7953 2.64942 13.3515 3.43332 13.3395C4.17042 13.3275 4.69692 14.0352 4.87242 14.3231C5.71482 15.7747 7.06032 15.3668 7.59852 15.1149C7.68042 14.4911 7.92612 14.0712 8.19522 13.8313C6.11262 13.5914 3.93642 12.7637 3.93642 9.09292C3.93642 8.04927 4.29912 7.18557 4.89582 6.51379C4.80222 6.27387 4.47462 5.29021 4.98942 3.97065C4.98942 3.97065 5.77332 3.71874 7.56342 4.95432C8.31222 4.7384 9.10782 4.63043 9.90342 4.63043C10.699 4.63043 11.4946 4.7384 12.2434 4.95432C14.0335 3.70674 14.8174 3.97065 14.8174 3.97065C15.3322 5.29021 15.0046 6.27387 14.911 6.51379C15.5077 7.18557 15.8704 8.03728 15.8704 9.09292C15.8704 12.7757 13.6825 13.5914 11.5999 13.8313C11.9392 14.1312 12.2317 14.707 12.2317 15.6067C12.2317 16.8903 12.22 17.9219 12.22 18.2458C12.22 18.4977 12.3955 18.7976 12.8635 18.7017C16.5607 17.4301 19.24 13.8313 19.24 9.59675C19.24 4.29455 15.0514 0 9.88002 0Z" fill="#8B8B8B"/>
</svg>
