<svg width="19" height="19" viewBox="0 0 19 19" fill="none" xmlns="http://www.w3.org/2000/svg">
<path d="M9.52018 0C6.97814 0 6.65938 0.0107841 5.66103 0.056317C4.66477 0.101766 3.98436 0.260017 3.38898 0.49136C2.77348 0.730561 2.25149 1.05063 1.73115 1.57097C1.21079 2.09131 0.890717 2.61335 0.651544 3.22885C0.420145 3.82421 0.26195 4.50461 0.216445 5.50087C0.170912 6.49923 0.160156 6.81798 0.160156 9.36003C0.160156 11.902 0.170912 12.2208 0.216445 13.2191C0.26195 14.2154 0.420145 14.8958 0.651544 15.4911C0.890745 16.1066 1.21081 16.6286 1.73115 17.149C2.25152 17.6694 2.77348 17.9894 3.38898 18.2286C3.98436 18.46 4.66477 18.6182 5.66103 18.6637C6.65938 18.7092 6.97814 18.72 9.52018 18.72C12.0622 18.72 12.3809 18.7092 13.3793 18.6637C14.3755 18.6182 15.0559 18.46 15.6513 18.2286C16.2668 17.9894 16.7888 17.6694 17.3092 17.149C17.8295 16.6286 18.1496 16.1066 18.3888 15.4911C18.6201 14.8958 18.7784 14.2154 18.8238 13.2191C18.8694 12.2208 18.8802 11.902 18.8802 9.36003C18.8802 6.81798 18.8694 6.49923 18.8238 5.50087C18.7784 4.50461 18.6201 3.82421 18.3888 3.22885C18.1496 2.61335 17.8295 2.09131 17.3092 1.57097C16.7888 1.05063 16.2668 0.730561 15.6513 0.49136C15.0559 0.260017 14.3755 0.101766 13.3793 0.056317C12.3809 0.0107841 12.0622 0 9.52018 0ZM9.52018 1.68647C12.0194 1.68647 12.3154 1.69603 13.3024 1.74106C14.215 1.78267 14.7106 1.93515 15.0404 2.06333C15.4773 2.23315 15.7891 2.43596 16.1166 2.76349C16.4442 3.09103 16.647 3.40285 16.8168 3.83973C16.945 4.16955 17.0975 4.66517 17.1391 5.57776C17.1841 6.56474 17.1937 6.86079 17.1937 9.36C17.1937 11.8592 17.1841 12.1553 17.1391 13.1422C17.0975 14.0549 16.945 14.5504 16.8168 14.8802C16.647 15.3172 16.4442 15.629 16.1166 15.9565C15.7891 16.284 15.4773 16.4868 15.0404 16.6567C14.7106 16.7848 14.215 16.9373 13.3024 16.9789C12.3156 17.024 12.0196 17.0335 9.52016 17.0335C7.02075 17.0335 6.72478 17.024 5.73791 16.9789C4.8253 16.9373 4.32971 16.7848 3.99991 16.6567C3.56298 16.4868 3.25118 16.284 2.92368 15.9565C2.59614 15.629 2.3933 15.3171 2.22349 14.8803C2.09531 14.5504 1.94285 14.0548 1.90122 13.1422C1.85619 12.1553 1.84663 11.8592 1.84663 9.36C1.84663 6.86079 1.85619 6.56474 1.90122 5.57776C1.94285 4.66515 2.09531 4.16955 2.22349 3.83976C2.3933 3.40282 2.59614 3.09103 2.92365 2.76352C3.25118 2.43596 3.563 2.23315 3.99989 2.06333C4.32971 1.93515 4.82533 1.78267 5.73791 1.74106C6.7249 1.69603 7.02094 1.68647 9.52016 1.68647" fill="#8B8B8B"/>
<path d="M9.51989 12.4799C7.79672 12.4799 6.39985 11.083 6.39985 9.35993C6.39985 7.63676 7.79672 6.23989 9.51989 6.23989C11.243 6.23989 12.6399 7.63676 12.6399 9.35993C12.6399 11.083 11.243 12.4799 9.51989 12.4799ZM9.51989 4.55342C6.8653 4.55342 4.71338 6.70534 4.71338 9.35993C4.71338 12.0145 6.8653 14.1664 9.51989 14.1664C12.1744 14.1664 14.3263 12.0145 14.3263 9.35993C14.3263 6.70534 12.1744 4.55342 9.51989 4.55342ZM15.6395 4.36352C15.6395 4.98387 15.1366 5.48671 14.5162 5.48671C13.896 5.48671 13.3931 4.98387 13.3931 4.36352C13.3931 3.74319 13.896 3.2403 14.5162 3.2403C15.1366 3.2403 15.6395 3.74319 15.6395 4.36352Z" fill="#8B8B8B"/>
</svg>
