<svg width="381" height="384" viewBox="0 0 381 384" fill="none" xmlns="http://www.w3.org/2000/svg">
<path fill-rule="evenodd" clip-rule="evenodd" d="M165.136 0.804859C156.677 1.52113 141.307 4.6886 131.855 7.66436C114.006 13.2821 100.919 22.7741 96.0454 33.6341C93.1989 39.9751 92.5811 47.8323 94.4787 53.5503C96.8839 60.7967 95.7645 62.3626 91.1799 58.1643C88.4489 55.6643 81.533 52.9926 76.3484 52.4367C63.7311 51.0826 49.4394 60.2242 37.1056 77.5394C32.2503 84.3562 25.7367 95.0332 23.3663 100.062C21.0647 104.943 12.9369 125.44 11.7912 129.253C11.215 131.17 10.4189 133.719 10.0234 134.917C6.6058 145.26 2.79778 161.75 1.17086 173.258C-0.394099 184.332 -0.389855 204.614 1.18105 212.278C5.36163 232.683 16.1865 243.775 32.3487 244.215C35.0713 244.289 37.2405 244.725 37.1709 245.184C37.1005 245.642 35.9556 246.842 34.6257 247.85C27.0173 253.613 21.9821 263.591 22.0432 272.785C22.1128 283.419 27.1429 296.039 36.5539 309.193C42.7977 317.919 57.1573 332.945 66.1439 340.155C69.6447 342.963 72.7 345.504 72.9334 345.8C73.7591 346.847 89.5937 357.871 97.545 362.934C107.134 369.039 111.971 371.503 123.852 376.334C138.125 382.138 144.087 383.499 155.679 383.604C166.939 383.705 171.156 382.611 178.038 377.798C182.058 374.987 187.801 366.622 189.346 361.325C190.329 357.956 191.748 356.812 191.748 359.388C191.748 360.156 193.143 363.51 194.847 366.839C199.903 376.72 207.215 381.87 218.565 383.549C242.581 387.102 281.236 369.428 317.794 338.179C351.164 309.654 366.258 279.609 356.96 260.212C354.792 255.688 349.34 249.204 345.571 246.667C344.52 245.96 343.662 245.091 343.662 244.735C343.662 244.38 346.649 243.879 350.301 243.622C361.858 242.808 370.259 236.741 375.703 225.279C379.613 217.044 381.004 208.6 381 193.118C380.996 178.242 379.741 168.468 375.816 152.78C365.114 109.99 347.269 75.7348 327.941 60.8786C314.75 50.7392 302.873 49.6491 290.317 57.4245C287.286 59.3014 284.624 60.6494 284.401 60.4203C284.179 60.1911 284.677 57.4192 285.51 54.2596C288.236 43.9181 285.746 33.2027 278.775 25.2802C268.121 13.1715 243.131 3.71701 213.936 0.747348C203.894 -0.273909 177.518 -0.242539 165.136 0.804859ZM159.195 24.604C186.422 29.6074 191.281 29.6867 215.19 25.5233C250.042 19.4532 266.378 20.8187 276.479 30.6452C282.216 36.2273 284.589 44.6195 283.332 54.8888C282.502 61.6716 281.278 64.7031 279.756 63.7385C279.196 63.383 276.637 61.6655 274.07 59.921C267.103 55.1868 253.928 48.3386 245.032 44.8278C227.449 37.8864 210.427 34.6728 191.052 34.6344C171.648 34.5969 157.22 36.9471 139.13 43.0929C130.805 45.9214 114.054 54.4348 106.032 59.9149C98.5795 65.0046 98.2528 64.866 96.743 55.9632C94.9667 45.4927 98.134 35.3167 104.97 29.5264C108.61 26.4443 115.544 23.52 121.732 22.4586C128.725 21.2587 146.541 22.2791 159.195 24.604ZM89.9069 59.4879C94.7486 62.0105 97.545 64.1262 97.545 65.2678C97.545 65.632 95.5404 67.5551 93.0895 69.541C69.2832 88.8351 50.2389 118.192 41.6333 148.859C36.9851 165.427 36.15 171.978 36.0795 192.428C36.0133 212.005 36.9036 220.036 40.6997 234.102C43.2627 243.599 43.407 243.317 36.3528 242.643C17.4468 240.839 7.64967 228.292 10.2084 209.16C11.6003 198.75 14.5002 191.024 25.3183 168.901C36.9223 145.172 38.3132 141.227 40.6828 125.332C45.5559 92.6439 47.0487 86.0127 51.8395 75.7836C55.9216 67.0671 60.8058 61.3343 66.5683 58.4954C70.2532 56.6794 71.7613 56.4477 78.0254 56.73C83.8346 56.9923 86.1481 57.529 89.9069 59.4879ZM313.999 58.6923C321.307 62.495 326.569 69.4739 330.962 81.1905C333.668 88.4107 336.126 100.294 339.46 122.282C341.946 138.683 344.335 146.11 351.929 161.058C361.235 179.377 362.026 180.996 364.492 186.764C375.52 212.552 373.266 230.474 357.989 238.471C352.464 241.364 344.012 243.128 339.719 242.286C337.571 241.864 337.097 239.693 338.547 236.911C339.002 236.039 340.407 230.281 341.669 224.115C343.766 213.868 343.965 211.221 343.981 193.3C343.997 175.35 343.808 172.773 341.743 162.801C336.26 136.324 326.668 114.952 311.099 94.5287C305.647 87.3773 292.902 74.2499 286.103 68.782L282.435 65.8324L282.923 68.7873C283.191 70.4124 284.185 78.2121 285.131 86.1199C286.077 94.0276 287.407 104.615 288.087 109.647C288.767 114.679 290.463 127.619 291.856 138.403C294.128 155.991 294.663 158.547 297.059 163.237C300.009 169.009 323.117 216.445 328.683 228.155C330.62 232.228 332.417 235.757 332.677 235.997C333.419 236.681 335.44 242.119 335.077 242.453C334.897 242.618 331.313 244.422 327.112 246.462C322.911 248.501 314.7 252.52 308.866 255.393C303.031 258.266 294.342 262.527 289.558 264.862C284.774 267.199 276.754 271.115 271.736 273.567C266.718 276.018 260.703 278.916 258.369 280.006C255.667 281.269 253.935 282.344 251.22 284.965C249.356 286.765 247.028 289.294 243.605 293.114C240.619 296.446 234.89 302.705 230.875 307.023C223.223 315.251 205.837 334.245 196.784 344.266C193.862 347.501 191.15 350.148 190.757 350.148C190.364 350.148 182.53 342.599 173.348 333.374C164.166 324.148 154.104 314.051 150.988 310.936C147.872 307.821 140.939 300.861 135.581 295.469C130.223 290.077 125.425 285.666 124.917 285.666C124.331 285.377 124.331 285.377 123.712 284.965C123.557 284.58 119.42 282.17 114.519 279.61C109.617 277.049 103.316 273.689 100.515 272.144C97.7147 270.598 86.6395 264.729 75.9037 259.102C49.3469 245.181 44.927 242.722 44.927 241.867C44.927 241.462 46.0192 239.094 47.3542 236.604C48.6883 234.113 51.7911 228.155 54.248 223.362C56.7058 218.57 59.3842 213.472 60.2006 212.034C61.0179 210.596 63.2075 206.479 65.067 202.885C66.9264 199.29 72.8875 187.919 78.3131 177.615C85.397 164.161 88.2995 157.775 88.611 154.959C88.8495 152.802 89.2568 149.077 89.5165 146.681C89.7762 144.284 90.3372 139.579 90.7624 136.224C91.5652 129.892 92.5735 121.43 96.6047 87.1925C97.9176 76.0406 99.2093 66.6925 99.4758 66.4197C99.7422 66.1461 108.296 67.1203 118.484 68.5851C128.673 70.0499 139.873 71.6558 143.374 72.1534C146.874 72.6501 158.141 74.2639 168.41 75.7391C178.679 77.2135 188.226 78.402 189.627 78.3803C192.198 78.3393 210.776 75.6929 236.646 71.6828C257.591 68.4361 266.907 67.0332 274.861 65.9274C280.368 65.1623 282.879 64.3362 285.756 62.3425C294.88 56.0198 306.08 54.5724 313.999 58.6923ZM129.413 165.28C129.856 165.686 137.093 170.848 145.495 176.753C153.897 182.657 161.229 188.059 161.788 188.756C162.528 189.678 162.69 194.08 162.381 204.95C162.149 213.159 162.264 220.269 162.638 220.748C163.012 221.227 168.855 225.917 175.623 231.171C182.392 236.423 188.434 241.227 189.05 241.845C190.577 243.373 191.969 243.256 193.922 241.432C194.827 240.588 200.914 235.805 207.449 230.806C213.984 225.806 219.62 221.302 219.973 220.796C220.326 220.29 220.57 219.092 220.515 218.134C220.461 217.175 220.457 210.112 220.509 202.438C220.597 189.385 220.714 188.429 222.307 187.624C223.244 187.151 230.859 182.059 239.23 176.308L254.449 165.851L237.474 165.106C228.138 164.696 220.304 164.561 220.064 164.807C219.825 165.053 219.407 177.838 219.135 193.218L218.641 221.184H191.192H163.742V192.864V164.544H146.174C136.512 164.544 128.97 164.875 129.413 165.28ZM45.6755 250.006C55.4175 276.541 76.7906 305.074 99.3043 321.597C123.65 339.466 150.355 349.098 182.284 351.525L190.216 352.128L189.754 354.503C188.805 359.374 184.673 366.74 180.805 370.454C176.8 374.302 169.031 378.032 165.025 378.032C157.203 378.032 145.288 372.834 136.355 365.525C133.245 362.981 123.79 353.947 115.341 345.448C106.447 336.502 97.5026 328.352 94.096 326.089C90.86 323.939 80.86 318.429 71.8734 313.842C49.9944 302.676 38.842 294.837 31.8769 285.728C23.4105 274.657 25.5882 258.836 37.0326 248.267C39.689 245.814 42.2579 243.942 42.7408 244.108C43.2245 244.273 44.5451 246.928 45.6755 250.006ZM344.212 247.833C349.713 252.658 353.017 258.189 354.341 264.791C356.354 274.817 353.454 282.352 343.913 291.89C336.652 299.149 329.583 303.702 309.515 314.042C299.589 319.157 289.369 324.766 286.804 326.506C284.237 328.247 274.473 337.354 265.105 346.746C255.446 356.43 245.341 365.707 241.763 368.178C224.061 380.401 210.347 380.793 199.943 369.373C196.168 365.23 191.748 356.781 191.748 353.709C191.748 351.688 193.975 351.048 201.084 351.025C213.166 350.987 234.195 345.903 249.87 339.233C271.337 330.096 293.196 313.547 308.588 294.774C318.352 282.867 329.196 264.008 333.993 250.593C336.912 242.429 337.783 242.193 344.212 247.833Z" fill="#AEC1BA" fill-opacity="0.6"/>
</svg>
