<svg width="20" height="20" viewBox="0 0 20 20" fill="none" xmlns="http://www.w3.org/2000/svg">
<path fill-rule="evenodd" clip-rule="evenodd" d="M9.95692 18.3353C14.4226 18.3353 18.0427 14.6473 18.0427 10.098C18.0427 5.54872 14.4226 1.86078 9.95692 1.86078C5.49124 1.86078 1.87109 5.54872 1.87109 10.098C1.87109 14.6473 5.49124 18.3353 9.95692 18.3353ZM9.95696 4.08455L15.5034 8.35068L13.2759 14.7953H6.50433L4.56641 8.30529L9.95696 4.08455Z" fill="#8B8B8B"/>
<path fill-rule="evenodd" clip-rule="evenodd" d="M8.66857 0.0419197C8.2245 0.0792257 7.41769 0.244198 6.9215 0.399185C5.98457 0.691778 5.29756 1.18615 5.04175 1.75177C4.89233 2.08204 4.8599 2.49127 4.95951 2.78908C5.08577 3.16649 5.02701 3.24805 4.78635 3.02939C4.64299 2.89918 4.27995 2.76003 4.00779 2.73108C3.34547 2.66055 2.59524 3.13668 1.9478 4.03851C1.69293 4.39355 1.35101 4.94965 1.22658 5.21156C1.10576 5.4658 0.679104 6.53333 0.618961 6.73193C0.588712 6.83178 0.546924 6.96453 0.526164 7.02693C0.346761 7.5656 0.146865 8.4245 0.0614626 9.02384C-0.0206876 9.60063 -0.0204648 10.657 0.0619972 11.0562C0.281451 12.1189 0.849686 12.6966 1.6981 12.7195C1.84101 12.7234 1.95488 12.7461 1.95123 12.77C1.94753 12.7939 1.88743 12.8564 1.81762 12.9088C1.41823 13.209 1.15392 13.7287 1.15713 14.2075C1.16078 14.7614 1.42483 15.4187 1.91884 16.1038C2.2466 16.5583 3.00038 17.3409 3.47212 17.7164C3.65589 17.8627 3.81627 17.995 3.82852 18.0104C3.87187 18.0649 4.70308 18.6391 5.12047 18.9028C5.62384 19.2208 5.87773 19.3491 6.50143 19.6007C7.25068 19.903 7.56364 19.9739 8.17215 19.9793C8.76319 19.9847 8.98456 19.9277 9.34582 19.677C9.55685 19.5306 9.85832 19.0949 9.93945 18.819C9.99104 18.6436 10.0655 18.584 10.0655 18.7181C10.0655 18.7581 10.1387 18.9328 10.2282 19.1062C10.4936 19.6208 10.8774 19.8891 11.4732 19.9765C12.7339 20.1616 14.7631 19.241 16.6821 17.6135C18.4338 16.1278 19.2261 14.563 18.7381 13.5527C18.6243 13.3171 18.3381 12.9794 18.1402 12.8472C18.0851 12.8104 18.04 12.7651 18.04 12.7466C18.04 12.7281 18.1968 12.702 18.3885 12.6886C18.9952 12.6462 19.4362 12.3303 19.7219 11.7333C19.9272 11.3044 20.0002 10.8646 20 10.0582C19.9998 9.28344 19.9339 8.77436 19.7279 7.95731C19.1661 5.72862 18.2294 3.94452 17.2148 3.17076C16.5223 2.64267 15.8989 2.58589 15.2397 2.99086C15.0807 3.08862 14.9409 3.15882 14.9292 3.14689C14.9175 3.13495 14.9437 2.99059 14.9874 2.82602C15.1305 2.2874 14.9998 1.72931 14.6339 1.31667C14.0746 0.686014 12.7628 0.193594 11.2302 0.0389244C10.7031 -0.0142661 9.31855 -0.0126322 8.66857 0.0419197ZM8.35668 1.28146C9.78593 1.54205 10.041 1.54618 11.2961 1.32934C13.1256 1.01319 13.9831 1.08431 14.5133 1.59611C14.8145 1.88684 14.939 2.32393 14.8731 2.85879C14.8295 3.21206 14.7652 3.36995 14.6854 3.31971C14.656 3.3012 14.5216 3.21174 14.3869 3.12088C14.0212 2.87431 13.3296 2.51764 12.8626 2.33478C11.9396 1.97325 11.046 1.80587 10.029 1.80388C9.0104 1.80192 8.25301 1.92433 7.30342 2.24442C6.86639 2.39174 5.9871 2.83514 5.56597 3.12057C5.17478 3.38566 5.15763 3.37844 5.07837 2.91475C4.98513 2.36941 5.15139 1.83941 5.51024 1.53783C5.70132 1.37731 6.06529 1.225 6.39015 1.16972C6.75724 1.10723 7.69243 1.16037 8.35668 1.28146ZM4.71952 3.09833C4.97368 3.22971 5.12047 3.33991 5.12047 3.39936C5.12047 3.41833 5.01525 3.5185 4.88659 3.62193C3.63691 4.62683 2.63721 6.15582 2.18547 7.75308C1.94147 8.61597 1.89764 8.95717 1.89394 10.0223C1.89046 11.0419 1.9372 11.4602 2.13647 12.1928C2.27101 12.6874 2.27858 12.6727 1.90828 12.6377C0.915843 12.5437 0.401557 11.8902 0.535876 10.8938C0.608938 10.3516 0.761165 9.94918 1.32904 8.79692C1.93818 7.56106 2.01119 7.35556 2.13558 6.5277C2.39138 4.8252 2.46975 4.47983 2.72123 3.94706C2.93552 3.49308 3.1919 3.1945 3.4944 3.04663C3.68783 2.95205 3.767 2.93998 4.09582 2.95469C4.40077 2.96835 4.52221 2.9963 4.71952 3.09833ZM16.4829 3.05689C16.8665 3.25495 17.1427 3.61843 17.3733 4.22867C17.5154 4.60472 17.6444 5.22363 17.8194 6.36886C17.9499 7.22308 18.0753 7.60989 18.4739 8.38846C18.9625 9.34258 19.004 9.42686 19.1335 9.7273C19.7123 11.0704 19.594 12.0039 18.7921 12.4204C18.502 12.571 18.0584 12.6629 17.833 12.6191C17.7202 12.5971 17.6954 12.484 17.7715 12.3391C17.7954 12.2937 17.8691 11.9938 17.9354 11.6727C18.0455 11.139 18.0559 11.0011 18.0567 10.0677C18.0576 9.13281 18.0476 8.99861 17.9392 8.47923C17.6515 7.10018 17.1479 5.98709 16.3306 4.92337C16.0444 4.5509 15.3754 3.86718 15.0185 3.5824L14.826 3.42877L14.8516 3.58267C14.8657 3.66731 14.9178 4.07355 14.9675 4.48541C15.0172 4.89727 15.087 5.44869 15.1227 5.71079C15.1583 5.97288 15.2474 6.64684 15.3205 7.20847C15.4398 8.12451 15.4679 8.25766 15.5936 8.50192C15.7485 8.80255 16.9615 11.2732 17.2537 11.8831C17.3554 12.0952 17.4497 12.279 17.4634 12.2915C17.5023 12.3271 17.6084 12.6103 17.5894 12.6278C17.5799 12.6363 17.3918 12.7303 17.1713 12.8365C16.9507 12.9428 16.5197 13.1521 16.2134 13.3017C15.9071 13.4514 15.451 13.6733 15.1999 13.7949C14.9488 13.9166 14.5278 14.1206 14.2644 14.2483C14.0009 14.3759 13.6852 14.5269 13.5627 14.5837C13.4208 14.6494 13.3299 14.7054 13.1874 14.8419C13.0895 14.9357 12.9674 15.0674 12.7877 15.2664C12.6309 15.4399 12.3302 15.7659 12.1194 15.9908C11.7178 16.4193 10.8051 17.4086 10.3299 17.9305C10.1765 18.099 10.0341 18.2369 10.0135 18.2369C9.99286 18.2369 9.58162 17.8437 9.09964 17.3632C8.61765 16.8827 8.08946 16.3568 7.92588 16.1946C7.76233 16.0323 7.39836 15.6698 7.11712 15.389C6.83587 15.1082 6.58399 14.8784 6.55734 14.8784C6.52658 14.8634 6.52658 14.8634 6.49408 14.8419C6.48593 14.8219 6.26875 14.6963 6.01147 14.563C5.7542 14.4296 5.42341 14.2547 5.2764 14.1741C5.12938 14.0936 4.54801 13.788 3.98445 13.4949C2.59039 12.7698 2.35837 12.6417 2.35837 12.5972C2.35837 12.5762 2.41571 12.4528 2.48579 12.3231C2.55582 12.1934 2.71869 11.8831 2.84767 11.6334C2.97668 11.3838 3.11728 11.1183 3.16014 11.0434C3.20304 10.9686 3.31798 10.7541 3.41559 10.5669C3.5132 10.3797 3.82612 9.78743 4.11092 9.25076C4.48278 8.55003 4.63515 8.21745 4.65149 8.07077C4.66401 7.95845 4.6854 7.76443 4.69903 7.63962C4.71266 7.51481 4.74211 7.26974 4.76443 7.09501C4.80657 6.7652 4.8595 6.32447 5.07111 4.54128C5.14003 3.96045 5.20784 3.47357 5.22182 3.45936C5.23581 3.44511 5.68483 3.49585 6.21966 3.57214C6.75448 3.64843 7.34241 3.73207 7.52617 3.75799C7.70994 3.78386 8.30134 3.86791 8.8404 3.94475C9.37945 4.02154 9.88064 4.08344 9.95415 4.0823C10.0891 4.08017 11.0644 3.94234 12.4224 3.73348C13.5218 3.56438 14.0109 3.49131 14.4284 3.43372C14.7175 3.39387 14.8493 3.35085 15.0003 3.24701C15.4793 2.9177 16.0672 2.84231 16.4829 3.05689ZM6.79333 8.60835C6.81658 8.62945 7.1965 8.89831 7.63755 9.20588C8.07859 9.5134 8.46346 9.79474 8.49282 9.83105C8.53167 9.87906 8.54013 10.1083 8.52396 10.6745C8.51175 11.102 8.51781 11.4723 8.53741 11.4973C8.55706 11.5223 8.86379 11.7665 9.21907 12.0401C9.57436 12.3137 9.89156 12.5639 9.9239 12.5961C10.004 12.6757 10.0771 12.6696 10.1796 12.5746C10.2272 12.5306 10.5467 12.2815 10.8897 12.0212C11.2327 11.7607 11.5286 11.5262 11.5471 11.4998C11.5657 11.4735 11.5785 11.4111 11.5756 11.3611C11.5727 11.3112 11.5726 10.9433 11.5753 10.5436C11.5799 9.86382 11.586 9.81403 11.6696 9.77209C11.7188 9.74745 12.1186 9.48222 12.558 9.18269L13.3569 8.63808L12.4658 8.59927C11.9757 8.5779 11.5645 8.57091 11.5519 8.5837C11.5394 8.5965 11.5174 9.26238 11.5032 10.0635L11.4772 11.52H10.0363H8.59537V10.045V8.57H7.67319C7.16599 8.57 6.77007 8.58724 6.79333 8.60835ZM2.39767 13.0212C2.90905 14.4032 4.031 15.8893 5.21282 16.7498C6.49083 17.6805 7.89264 18.1822 9.5687 18.3086L9.98511 18.34L9.96083 18.4637C9.91103 18.7174 9.69411 19.101 9.4911 19.2945C9.28082 19.4949 8.87301 19.6892 8.66273 19.6892C8.25212 19.6892 7.62668 19.4184 7.15774 19.0378C6.99451 18.9053 6.49814 18.4347 6.05464 17.9921C5.58776 17.5261 5.11825 17.1017 4.93942 16.9838C4.76955 16.8718 4.24462 16.5848 3.77288 16.3459C2.62438 15.7644 2.03895 15.3561 1.67333 14.8816C1.2289 14.305 1.34321 13.481 1.94397 12.9306C2.08341 12.8028 2.21826 12.7053 2.24361 12.714C2.269 12.7226 2.33832 12.8608 2.39767 13.0212ZM18.0689 12.908C18.3576 13.1593 18.5311 13.4473 18.6006 13.7912C18.7062 14.3134 18.554 14.7058 18.0532 15.2026C17.672 15.5807 17.3009 15.8178 16.2475 16.3564C15.7264 16.6228 15.19 16.9149 15.0553 17.0055C14.9206 17.0962 14.408 17.5705 13.9163 18.0597C13.4092 18.564 12.8788 19.0472 12.691 19.1759C11.7617 19.8126 11.0418 19.833 10.4957 19.2382C10.2975 19.0224 10.0655 18.5823 10.0655 18.4223C10.0655 18.3171 10.1824 18.2837 10.5556 18.2826C11.1898 18.2806 12.2937 18.0158 13.1165 17.6684C14.2434 17.1925 15.3909 16.3306 16.1989 15.3528C16.7114 14.7326 17.2806 13.7504 17.5324 13.0517C17.6857 12.6265 17.7314 12.6142 18.0689 12.908Z" fill="#8B8B8B"/>
</svg>
