<svg width="216" height="58" viewBox="0 0 216 58" fill="none" xmlns="http://www.w3.org/2000/svg">
<path d="M0.709688 0.999996H9.50969V49H23.9897V57H0.709688V0.999996ZM29.2097 0.999996H38.0097V57H29.2097V0.999996ZM45.6003 0.999996H54.4003V24.6L65.6003 0.999996H74.4003L63.9203 21.56L74.5603 57H65.3603L57.9203 32.04L54.4003 39.16V57H45.6003V0.999996ZM79.7253 0.999996H103.725V9H88.5253V23.8H100.605V31.8H88.5253V49H103.725V57H79.7253V0.999996ZM109.788 0.999996H118.588V49H133.068V57H109.788V0.999996ZM138.288 0.999996H147.088V57H138.288V0.999996ZM167.398 57.8C163.078 57.8 159.772 56.5733 157.478 54.12C155.185 51.6667 154.038 48.2 154.038 43.72V14.28C154.038 9.8 155.185 6.33333 157.478 3.88C159.772 1.42666 163.078 0.199997 167.398 0.199997C171.718 0.199997 175.025 1.42666 177.318 3.88C179.612 6.33333 180.758 9.8 180.758 14.28V43.72C180.758 48.2 179.612 51.6667 177.318 54.12C175.025 56.5733 171.718 57.8 167.398 57.8ZM167.398 49.8C170.438 49.8 171.958 47.96 171.958 44.28V13.72C171.958 10.04 170.438 8.2 167.398 8.2C164.358 8.2 162.838 10.04 162.838 13.72V44.28C162.838 47.96 164.358 49.8 167.398 49.8ZM187.71 0.999996H198.75L207.31 34.52H207.47V0.999996H215.31V57H206.27L195.71 16.12H195.55V57H187.71V0.999996Z" fill="#121212"/>
</svg>
