<svg width="122" height="33" viewBox="0 0 122 33" fill="none" xmlns="http://www.w3.org/2000/svg">
<path id="Subtract" fill-rule="evenodd" clip-rule="evenodd" d="M122 0H0V33H122V0ZM18.9169 11.16V23H21.2849V18.792H22.8689C25.4129 18.792 27.4289 17.592 27.4289 14.888C27.4289 12.072 25.4129 11.16 22.8049 11.16H18.9169ZM22.7089 16.92H21.2849V13.048H22.6289C24.2609 13.048 25.1249 13.496 25.1249 14.888C25.1249 16.232 24.3409 16.92 22.7089 16.92ZM29.5888 11.16V23H31.7008V18.056C31.7008 16.936 31.5248 15.288 31.3968 14.168H31.4608L32.4208 16.952L34.2448 21.944H35.6048L37.4288 16.952L38.4048 14.168H38.4848L38.4744 14.2587C38.3467 15.3755 38.1648 16.9659 38.1648 18.056V23H40.3248V11.16H37.7008L35.7328 16.712C35.6381 17.0024 35.5484 17.2978 35.4577 17.5963C35.3187 18.0541 35.1775 18.5191 35.0128 18.984H34.9488C34.848 18.6815 34.7546 18.3791 34.6618 18.0786C34.5191 17.616 34.3777 17.1581 34.2128 16.712L32.1968 11.16H29.5888ZM45.0214 17.064C45.0214 17.928 45.6294 18.6 46.4774 18.6C47.2934 18.6 47.9494 17.928 47.9494 17.064C47.9494 16.184 47.2934 15.528 46.4774 15.528C45.6294 15.528 45.0214 16.184 45.0214 17.064ZM52.6982 11.16V23H56.0742C59.5622 23 61.7862 21.016 61.7862 17.032C61.7862 13.032 59.5622 11.16 55.9462 11.16H52.6982ZM55.7862 21.096H55.0662V13.048H55.7862C58.0102 13.048 59.3702 14.152 59.3702 17.032C59.3702 19.912 58.0102 21.096 55.7862 21.096ZM63.3681 18.536C63.3681 21.496 65.3201 23.224 67.8321 23.224C68.9361 23.224 70.0561 22.856 70.9361 22.248L70.1521 20.792C69.4961 21.192 68.8561 21.416 68.1361 21.416C66.8081 21.416 65.8481 20.664 65.6401 19.192H71.1761C71.2241 18.968 71.2721 18.552 71.2721 18.104C71.2721 15.624 70.0081 13.832 67.5281 13.832C65.4161 13.832 63.3681 15.624 63.3681 18.536ZM69.2721 17.624H65.6081C65.8001 16.312 66.6321 15.64 67.5761 15.64C68.7281 15.64 69.2721 16.408 69.2721 17.624ZM72.3769 21.976C73.2569 22.712 74.5849 23.224 75.7849 23.224C78.1049 23.224 79.3369 21.976 79.3369 20.392C79.3369 18.744 78.0409 18.136 76.8569 17.688C76.816 17.6737 76.7753 17.6595 76.7349 17.6454C75.8288 17.3295 75.0809 17.0687 75.0809 16.456C75.0809 15.928 75.4489 15.576 76.2649 15.576C76.9209 15.576 77.5609 15.896 78.1849 16.344L79.2569 14.936C78.5209 14.36 77.4969 13.832 76.2009 13.832C74.1529 13.832 72.8729 14.968 72.8729 16.552C72.8729 18.072 74.1369 18.744 75.2729 19.192C75.3213 19.2103 75.3697 19.2286 75.418 19.2468C76.2967 19.5783 77.1449 19.8982 77.1449 20.52C77.1449 21.08 76.7289 21.48 75.8329 21.48C75.0009 21.48 74.2489 21.112 73.4329 20.488L72.3769 21.976ZM81.1468 14.056V23H83.4988V14.056H81.1468ZM80.9548 11.304C80.9548 12.088 81.4988 12.6 82.3148 12.6C83.1308 12.6 83.6908 12.088 83.6908 11.304C83.6908 10.536 83.1308 10.04 82.3148 10.04C81.4988 10.04 80.9548 10.536 80.9548 11.304ZM85.4142 24.6C85.4142 26.168 87.0462 26.888 89.1422 26.888C92.1342 26.888 94.0382 25.528 94.0382 23.72C94.0382 22.136 92.8542 21.48 90.6942 21.48H89.1582C88.1182 21.48 87.7502 21.208 87.7502 20.744C87.7502 20.376 87.8942 20.184 88.1342 19.96C88.5342 20.104 88.9342 20.168 89.2862 20.168C91.2222 20.168 92.7582 19.16 92.7582 17.128C92.7582 16.584 92.5822 16.088 92.3422 15.784H93.8782V14.056H90.6462C90.2782 13.912 89.7982 13.832 89.2862 13.832C87.3982 13.832 85.6702 14.952 85.6702 17.064C85.6702 18.12 86.2622 18.968 86.8862 19.416V19.48C86.3262 19.864 85.8782 20.472 85.8782 21.144C85.8782 21.88 86.2302 22.36 86.6942 22.664V22.744C85.8622 23.192 85.4142 23.848 85.4142 24.6ZM90.6942 17.064C90.6942 18.12 90.0702 18.728 89.2862 18.728C88.5022 18.728 87.8782 18.12 87.8782 17.064C87.8782 16.008 88.5022 15.432 89.2862 15.432C90.0862 15.432 90.6942 16.008 90.6942 17.064ZM91.7662 24.12C91.7662 24.808 90.8542 25.4 89.5102 25.4C88.1982 25.4 87.3662 24.984 87.3662 24.232C87.3662 23.864 87.5422 23.512 87.9582 23.176C88.2782 23.272 88.6462 23.304 89.1902 23.304H90.2782C91.2382 23.304 91.7662 23.48 91.7662 24.12ZM95.5531 14.056V23H97.9051V16.84C98.5611 16.2 99.0251 15.848 99.7611 15.848C100.625 15.848 101.025 16.312 101.025 17.72V23H103.377V17.416C103.377 15.176 102.529 13.832 100.609 13.832C99.3931 13.832 98.4651 14.472 97.6971 15.24H97.6491L97.4571 14.056H95.5531Z" fill="#5D5D5D"/>
</svg>
