<svg width="231" height="48" viewBox="0 0 231 48" fill="none" xmlns="http://www.w3.org/2000/svg">
<path fill-rule="evenodd" clip-rule="evenodd" d="M231 0H0V48H231V0ZM6.46484 26.4C6.46484 34.68 10.3048 40.4 19.3048 40.4C22.2648 40.4 24.8648 39.92 27.5048 38.16L27.8248 34.32C25.0248 36.48 22.5048 37.04 19.5448 37.04C13.1848 37.04 10.2248 33.04 10.2248 26.6C10.2248 17.48 13.9448 11.8 21.0648 11.8C26.6248 11.8 29.0248 15.24 29.0248 20.24C29.0248 24.08 28.0648 29.04 25.8248 29.04C25.2648 29.04 25.0248 28.8 25.0248 28.28C25.0248 28.12 25.0248 28.04 25.0648 27.64L26.2248 16.48H22.5048L22.1448 18.76H22.0648C21.5448 17.2 20.4648 16.32 18.7848 16.32C15.9848 16.32 14.4248 18.32 13.9848 22.24L13.5448 26.28C13.5048 26.72 13.4648 27.2 13.4648 27.64C13.4648 30.68 14.7848 32.44 17.2248 32.44C18.9848 32.44 20.1848 31.68 20.9848 30.04H21.0648C21.2248 31.92 22.5048 32.68 24.5448 32.68C27.6248 32.68 32.3448 29.76 32.3448 20.16C32.3448 13.68 29.6648 8.4 21.2248 8.4C11.3448 8.4 6.46484 16.52 6.46484 26.4ZM21.3848 26.2C21.1848 28.04 20.3448 28.72 19.1448 28.72C18.0648 28.72 17.3848 28.08 17.3848 26.68C17.3848 26.48 17.3848 26.4 17.4248 26.08L17.7848 22.68C17.9848 20.8 18.8248 20.16 20.0648 20.16C21.0648 20.16 21.8248 20.72 21.8248 21.92C21.8248 22.04 21.8248 22.16 21.7848 22.4L21.3848 26.2ZM43.3627 10V38H55.3627V34H47.7627V25.4H53.8027V21.4H47.7627V14H55.3627V10H43.3627ZM57.8539 10L60.6939 38H66.5339L68.5339 19.12H68.6139L70.6139 38H76.0939L78.9339 10H75.1339L73.1739 31.52H73.0939L71.0139 10H66.2139L64.1339 31.52H64.0539L62.0939 10H57.8539ZM82.1595 10V38H86.5595V25.4H91.2795V38H95.6795V10H91.2795V21.4H86.5595V10H82.1595ZM103.356 10L98.7964 38H102.876L103.676 32.52H108.676V32.44L109.476 38H113.876L109.316 10H103.356ZM108.156 28.72H104.196L106.116 14.88H106.196L108.156 28.72ZM123.377 10L126.217 38H132.057L134.057 19.12H134.137L136.137 38H141.617L144.457 10H140.657L138.697 31.52H138.617L136.537 10H131.737L129.657 31.52H129.577L127.617 10H123.377ZM146.667 33.76V38H150.907V33.76H146.667ZM162.453 31.36C162.453 35.84 164.693 38.4 169.013 38.4C173.333 38.4 175.573 35.84 175.573 31.36V10H171.333V31.68C171.333 33.68 170.493 34.4 169.093 34.4C167.693 34.4 166.853 33.68 166.853 31.68V10H162.453V31.36ZM179.706 10V38H183.626V17.56H183.706L188.986 38H193.506V10H189.586V26.76H189.506L185.226 10H179.706ZM197.777 10V38H202.177V10H197.777ZM205.312 10L209.552 38H215.392L219.632 10H215.592L212.712 31.72H212.632L209.752 10H205.312ZM220.636 33.76V38H224.876V33.76H220.636Z" fill="#00462A"/>
</svg>
