<svg width="297" height="397" viewBox="0 0 297 397" fill="none" xmlns="http://www.w3.org/2000/svg">
<path fill-rule="evenodd" clip-rule="evenodd" d="M170.771 0.832107C162.023 1.57263 146.129 4.84732 136.353 7.92383C117.896 13.7318 104.362 23.5451 99.3225 34.7727C96.379 41.3284 95.74 49.4516 97.7024 55.3632C100.19 62.8549 99.032 64.4738 94.2911 60.1334C91.4668 57.5487 84.315 54.7867 78.9535 54.2119C65.9057 52.8119 51.1263 62.263 38.3717 80.1644C33.3507 87.212 26.6148 98.2505 24.1636 103.449C21.7835 108.496 13.3783 129.687 12.1935 133.629C11.5976 135.611 10.7744 138.246 10.3654 139.485C6.83119 150.177 2.89324 167.226 1.21081 179.123C-0.407546 190.573 -0.403157 211.541 1.22135 219.465C5.54458 240.561 16.7388 252.028 33.4525 252.483C36.268 252.559 38.5112 253.01 38.4392 253.485C38.3664 253.958 37.1825 255.199 35.8072 256.24C27.9392 262.199 22.7322 272.515 22.7954 282.02C22.8673 293.014 28.0691 306.062 37.8012 319.66C44.2579 328.682 59.1075 344.217 68.4008 351.67C72.0211 354.574 75.1805 357.201 75.4219 357.506C76.2758 358.589 92.6508 369.986 100.873 375.22C110.79 381.533 115.791 384.08 128.078 389.074C142.838 395.075 149.004 396.482 160.991 396.59C172.635 396.695 176.996 395.564 184.113 390.588C188.27 387.682 194.209 379.034 195.807 373.557C196.823 370.074 198.291 368.892 198.291 371.555C198.291 372.349 199.733 375.816 201.495 379.258C206.724 389.473 214.285 394.798 226.022 396.534C250.859 400.207 290.832 381.935 328.637 349.627C363.146 320.137 378.755 289.075 369.14 269.021C366.898 264.344 361.26 257.64 357.362 255.018C356.276 254.287 355.388 253.388 355.388 253.021C355.388 252.653 358.477 252.135 362.253 251.869C374.205 251.028 382.893 244.756 388.522 232.906C392.566 224.392 394.004 215.662 394 199.656C393.996 184.276 392.698 174.171 388.639 157.953C377.572 113.713 359.118 78.2987 339.131 62.9396C325.49 52.457 313.208 51.33 300.223 59.3685C297.089 61.309 294.336 62.7027 294.105 62.4657C293.875 62.2288 294.39 59.3631 295.252 56.0965C298.071 45.4049 295.496 34.3268 288.287 26.136C277.269 13.6174 251.427 3.84284 221.236 0.772649C210.851 -0.283182 183.576 -0.25075 170.771 0.832107ZM164.627 25.4369C192.783 30.6098 197.808 30.6917 222.533 26.3873C258.574 20.1118 275.467 21.5235 285.912 31.6827C291.845 37.4537 294.299 46.1301 293 56.747C292.142 63.7594 290.875 66.8936 289.302 65.8963C288.722 65.5287 286.076 63.7531 283.421 61.9495C276.217 57.0551 262.593 49.9751 253.392 46.3454C235.209 39.169 217.607 35.8466 197.571 35.8069C177.505 35.7682 162.584 38.1979 143.877 44.5518C135.268 47.476 117.946 56.2776 109.65 61.9432C101.943 67.2053 101.605 67.062 100.044 57.8577C98.2071 47.0328 101.482 36.5123 108.552 30.526C112.316 27.3396 119.486 24.3162 125.886 23.219C133.118 21.9784 151.541 23.0334 164.627 25.4369ZM92.9746 61.5018C97.9815 64.1098 100.873 66.2972 100.873 67.4773C100.873 67.8539 98.8003 69.8421 96.2657 71.8952C71.6472 91.8425 51.9531 122.193 43.0538 153.899C38.247 171.027 37.3834 177.8 37.3106 198.943C37.2421 219.183 38.1628 227.485 42.0884 242.027C44.7389 251.846 44.8881 251.554 37.5932 250.858C18.0421 248.993 7.91068 236.021 10.5568 216.241C11.9961 205.479 14.995 197.491 26.1822 174.619C38.1821 150.087 39.6205 146.008 42.0709 129.575C47.1103 95.7803 48.654 88.9246 53.6083 78.3491C57.8297 69.3376 62.8805 63.4108 68.8396 60.4757C72.6503 58.5983 74.2099 58.3586 80.6877 58.6505C86.6951 58.9217 89.0876 59.4766 92.9746 61.5018ZM324.712 60.6793C332.271 64.6107 337.712 71.8259 342.255 83.9391C345.053 91.4038 347.595 103.689 351.042 126.422C353.614 143.378 356.084 151.056 363.937 166.511C373.561 185.45 374.379 187.123 376.929 193.087C388.333 219.748 386.002 238.277 370.204 246.544C364.49 249.535 355.75 251.359 351.311 250.488C349.089 250.052 348.599 247.807 350.099 244.932C350.569 244.03 352.022 238.077 353.327 231.702C355.496 221.109 355.701 218.372 355.718 199.843C355.734 181.286 355.539 178.622 353.403 168.313C347.734 140.939 337.814 118.844 321.714 97.7289C316.076 90.3353 302.896 76.7636 295.865 71.1106L292.072 68.0611L292.576 71.116C292.853 72.7961 293.881 80.8599 294.86 89.0354C295.838 97.2108 297.214 108.157 297.916 113.359C298.619 118.562 300.374 131.94 301.814 143.088C304.163 161.271 304.717 163.915 307.195 168.763C310.246 174.731 334.142 223.773 339.898 235.879C341.901 240.09 343.76 243.739 344.028 243.987C344.795 244.694 346.886 250.315 346.51 250.661C346.324 250.831 342.618 252.697 338.274 254.805C333.929 256.914 325.438 261.069 319.405 264.039C313.371 267.009 304.386 271.415 299.438 273.829C294.491 276.244 286.197 280.294 281.008 282.828C275.819 285.362 269.599 288.358 267.185 289.485C264.391 290.791 262.599 291.902 259.792 294.612C257.864 296.473 255.457 299.088 251.917 303.037C248.829 306.481 242.905 312.952 238.752 317.417C230.84 325.923 212.86 345.561 203.499 355.921C200.477 359.265 197.672 362.002 197.266 362.002C196.859 362.002 188.758 354.197 179.263 344.66C169.768 335.121 159.362 324.683 156.14 321.462C152.918 318.242 145.748 311.046 140.207 305.472C134.667 299.897 129.705 295.337 129.18 295.337C128.574 295.038 128.574 295.038 127.933 294.612C127.773 294.214 123.494 291.722 118.426 289.076C113.358 286.428 106.841 282.955 103.945 281.357C101.049 279.759 89.5957 273.691 78.4936 267.873C51.0307 253.481 46.4599 250.939 46.4599 250.055C46.4599 249.637 47.5895 247.188 48.97 244.614C50.3496 242.039 53.5583 235.879 56.099 230.924C58.6406 225.969 61.4104 220.699 62.2547 219.212C63.0999 217.726 65.3642 213.469 67.2871 209.753C69.21 206.037 75.3745 194.281 80.9852 183.628C88.3108 169.718 91.3124 163.116 91.6345 160.205C91.8811 157.975 92.3023 154.124 92.5709 151.646C92.8394 149.169 93.4196 144.304 93.8593 140.836C94.6895 134.289 95.7321 125.541 99.9009 90.1444C101.259 78.6149 102.594 68.9503 102.87 68.6683C103.146 68.3854 111.991 69.3926 122.527 70.907C133.063 72.4214 144.645 74.0817 148.266 74.5961C151.886 75.1096 163.536 76.778 174.156 78.3032C184.775 79.8275 194.649 81.0563 196.097 81.0338C198.756 80.9914 217.968 78.2555 244.72 74.1096C266.38 70.7529 276.014 69.3025 284.239 68.1593C289.934 67.3683 292.531 66.5143 295.507 64.4531C304.942 57.9163 316.524 56.4199 324.712 60.6793ZM133.829 170.876C134.287 171.295 141.771 176.631 150.46 182.737C159.148 188.841 166.73 194.426 167.309 195.146C168.074 196.099 168.241 200.651 167.922 211.888C167.682 220.375 167.801 227.726 168.187 228.221C168.574 228.717 174.617 233.565 181.616 238.997C188.615 244.427 194.864 249.394 195.501 250.032C197.08 251.613 198.519 251.491 200.538 249.605C201.475 248.732 207.769 243.788 214.527 238.62C221.285 233.451 227.113 228.794 227.478 228.271C227.843 227.748 228.096 226.51 228.039 225.519C227.983 224.528 227.979 217.225 228.033 209.291C228.124 195.797 228.245 194.808 229.892 193.976C230.861 193.487 238.736 188.222 247.393 182.276L263.131 171.466L245.577 170.696C235.922 170.271 227.821 170.133 227.573 170.387C227.326 170.641 226.893 183.858 226.612 199.76L226.101 228.672H197.715H169.329V199.393V170.115H151.162C141.17 170.115 133.37 170.457 133.829 170.876ZM47.234 258.47C57.3084 285.904 79.4108 315.402 102.693 332.484C127.869 350.959 155.485 360.916 188.503 363.426L196.707 364.049L196.228 366.504C195.247 371.54 190.974 379.155 186.975 382.996C182.832 386.973 174.798 390.83 170.656 390.83C162.567 390.83 150.246 385.456 141.008 377.9C137.792 375.27 128.013 365.93 119.276 357.143C110.079 347.894 100.829 339.468 97.3066 337.128C93.9602 334.906 83.619 329.209 74.3257 324.467C51.7003 312.923 40.1673 304.818 32.9645 295.401C24.2093 283.955 26.4613 267.599 38.2962 256.672C41.0432 254.136 43.6998 252.201 44.1992 252.372C44.6994 252.543 46.065 255.287 47.234 258.47ZM355.957 256.223C361.645 261.211 365.062 266.929 366.432 273.755C368.513 284.121 365.515 291.911 355.647 301.772C348.139 309.276 340.828 313.983 320.076 324.674C309.811 329.962 299.243 335.761 296.59 337.56C293.936 339.359 283.838 348.775 274.151 358.485C264.162 368.496 253.712 378.088 250.013 380.642C231.706 393.279 217.524 393.685 206.765 381.878C202.862 377.594 198.291 368.859 198.291 365.684C198.291 363.595 200.594 362.932 207.945 362.909C220.44 362.869 242.186 357.614 258.396 350.717C280.595 341.272 303.2 324.162 319.118 304.754C329.215 292.443 340.428 272.946 345.389 259.076C348.408 250.636 349.308 250.393 355.957 256.223Z" fill="#AEC1BA" fill-opacity="0.6"/>
</svg>
